<svg xmlns="http://www.w3.org/2000/svg" xmlns:xlink="http://www.w3.org/1999/xlink" width="89" height="24" viewBox="0 0 291 78">
    <defs>
        <path id="a" d="M36.778 116.913h287.833V32H36.778v84.913z"/>
    </defs>
    <g fill="none" fill-rule="evenodd">
        <g transform="translate(-36 -36)">
            <path fill="#0A2F64" d="M0 0h373.34v153H0z"/>
            <mask id="b" fill="#fff">
                <use xlink:href="#a"/>
            </mask>
            <g fill="#FFF" mask="url(#b)">
                <path d="M224.64 36.427h-5.466v30.709h5.465v-30.71zM243.254 53.826c.6-.04 2.046-.04 2.435-.04 3.798 0 6.102 1.395 6.102 4.09 0 2.48-1.838 4.927-5.465 4.927-1.026 0-2.39-.084-3.072-.128v-8.85zm0-11.892a61.55 61.55 0 0 1 3.117-.088c3.367 0 4.65 1.567 4.65 3.67 0 2.524-1.709 4.19-5.506 4.19-.893 0-1.579 0-2.26-.044v-7.728zm14.465 15.77c0-3.155-2.09-5.85-5.16-6.486v-.084c2.77-1.092 4.353-3.682 4.353-6.498 0-4.543-3.457-7.162-9.645-7.162-3.501 0-7.125.088-9.56.208v29.453c3.628 0 6.485.084 8.408.084 8.444 0 11.604-5.135 11.604-9.515zM273.156 58.392c0 2.52-1.793 5.04-4.439 5.04-1.578 0-2.56-1.096-2.56-2.436 0-1.808 1.49-3.156 6.999-3.156v.552zm-12.25 3.196c0 3.404 2.22 5.964 6.066 5.964 3.005 0 5.495-1.49 6.61-3.674v3.258h5.206c-.13-1.72-.167-3.704-.167-5.38v-8.627c0-4.672-1.964-7.363-8.537-7.363-2.86 0-5.89.591-8.029 1.435l.9 4.12c1.88-.804 4.48-1.432 6.4-1.432 2.82 0 3.801 1.136 3.801 3.663v.757c-7.425 0-12.25 2.311-12.25 7.279zM288.533 57.042c0-3.664 2.175-6.732 4.91-6.732 2.045 0 2.641 1.304 2.641 3.452v13.375h5.417V52.454c0-3.66-1.53-6.643-6.313-6.643-3.25 0-5.617 1.534-6.955 3.743v-3.323h-5.165v20.906h5.465V57.042zM311.218 57.475l6.573 9.66h6.825l-8.389-11.355 7.84-9.55h-6.661l-6.188 7.68V36.427h-5.461v30.709h5.461v-9.66zM140.274 108.07c-3.116 0-4.739-2.192-4.739-6.476 0-4.295 2.39-6.147 4.824-6.147 3.202 0 4.698 2.188 4.698 6.227 0 4.244-2.093 6.396-4.783 6.396m.467-17.17c-6.443 0-10.837 4.715-10.837 11.238 0 7.447 3.927 10.515 9.944 10.515 6.314 0 10.838-4.715 10.838-11.275 0-7.191-3.883-10.478-9.945-10.478M156.256 89.663v1.72h-3.716v4.171h3.716v16.742h5.417V95.554h4.954v-4.17h-4.954v-1.765c0-2.776 1.067-3.996 3.457-3.996.807 0 1.793.084 2.649.38l.381-4.42c-1.111-.251-2.304-.339-3.456-.339-5.803 0-8.448 2.78-8.448 8.419M181.842 90.527c0-2.016 1.494-3.404 4.736-3.404 1.704 0 3.371.292 4.953.796l.508-4.799c-1.62-.332-3.627-.54-5.202-.54-6.958 0-10.886 3.491-10.886 8.539 0 9.339 12.116 7.651 12.116 13.079 0 2.651-2.216 3.703-4.82 3.703-2.301 0-4.44-.467-6.273-1.223l-.597 5.255c1.92.508 4.098.764 6.658.764 6.659 0 11.138-3.916 11.138-9.171 0-9.003-12.33-7.951-12.33-12.999M207.132 107.987c-3.627 0-4.946-2.484-4.946-6.056 0-3.878 1.66-6.442 4.906-6.442 1.408 0 2.812.332 3.968.796l.852-4.624c-1.363-.464-3.03-.716-4.65-.716-7.34 0-10.8 5.004-10.8 11.527 0 7.111 3.675 10.139 9.559 10.139 2.053 0 4.313-.34 5.98-.964l-.73-4.507c-1.237.551-2.686.847-4.139.847M223.578 108.07c-3.116 0-4.739-2.192-4.739-6.476 0-4.295 2.386-6.147 4.824-6.147 3.201 0 4.695 2.188 4.695 6.227 0 4.244-2.09 6.396-4.78 6.396m.467-17.17c-6.44 0-10.841 4.715-10.841 11.238 0 7.447 3.93 10.515 9.944 10.515 6.321 0 10.845-4.715 10.845-11.275 0-7.191-3.887-10.478-9.948-10.478M247.422 108.11c-1.878 0-2.515-.757-2.515-3.452V95.49h5.165v-4.168h-5.165v-8.758l-5.421 1.428v7.33h-3.672v4.168h3.672v10.595c0 4.883 1.452 6.567 6.143 6.567 1.493 0 3.246-.252 4.613-.592l-.385-4.247c-.727.211-1.534.295-2.435.295M253.713 112.293h5.458V81.581h-5.458v30.712zM274.58 103.533c0 2.528-1.79 5.052-4.432 5.052-1.582 0-2.564-1.096-2.564-2.444 0-1.808 1.49-3.156 6.995-3.156v.548zm5.46-5.259c0-4.668-1.96-7.36-8.536-7.36-2.853 0-5.884.589-8.018 1.432l.893 4.12c1.882-.796 4.483-1.428 6.402-1.428 2.82 0 3.798 1.132 3.798 3.66v.756c-7.425 0-12.245 2.315-12.245 7.275 0 3.411 2.22 5.975 6.058 5.975 3.016 0 5.51-1.5 6.617-3.681v3.265h5.206a77.85 77.85 0 0 1-.175-5.384v-8.63zM295.807 90.964c-3.25 0-5.621 1.537-6.959 3.75v-3.33h-5.16v20.91h5.46v-10.096c0-3.66 2.18-6.73 4.906-6.73 2.049 0 2.65 1.3 2.65 3.443v13.382h5.42V97.611c0-3.66-1.538-6.647-6.317-6.647M319.194 101.422c0 3.572-1.708 6.855-4.568 6.855-2.475 0-3.624-2.02-3.624-5.931 0-5.18 2.216-7.111 5.332-7.111.937 0 1.882.128 2.86.34v5.847zm0-19.862v9.595a19.331 19.331 0 0 0-2.686-.168c-7.047 0-11.226 4.876-11.226 11.95 0 5.972 2.56 9.8 7.725 9.8 3.094 0 5.361-1.501 6.525-3.652v3.188h5.083V81.56h-5.42zM108.006 73.655H95.68c-2.62 0-5.05-1.526-5.824-3.816-2.234-6.396-8.637-8.69-8.637-8.69-2.33-.858-4.08-3.053-4.08-5.726V43.304c0-3.334 2.817-6.004 6.218-6.004 3.394 0 6.113 2.48 6.113 6.004l.004 9.712 14.165-14a6.224 6.224 0 0 1 8.733 0c2.427 2.378 2.427 6.29 0 8.678L98.399 61.438h9.607c3.394 0 6.21 2.769 6.21 6.11 0 3.339-2.816 6.107-6.21 6.107m-.1 14.694l-9.796-.008 14.16 13.949c2.431 2.381 2.431 6.201 0 8.58a6.206 6.206 0 0 1-8.728 0L89.469 97.033v9.547c0 3.63-2.815 6.11-6.213 6.11s-6.214-2.772-6.214-6.11V94.455c0-2.578 1.653-4.963 3.983-5.726 6.5-2.195 8.73-8.488 8.73-8.488.874-2.287 3.205-4.007 5.824-4.007h12.327c3.401 0 6.214 2.768 6.214 6.11 0 3.331-2.524 6.005-6.214 6.005m-39.685 24.244c-3.394 0-6.114-2.202-6.018-6.012l.019-9.678-14.187 13.966c-2.423 2.392-6.406 2.392-8.733 0-2.423-2.378-2.423-6.293 0-8.58L53.337 88.44H43.67c-3.497 0-6.21-2.765-6.21-6.096 0-3.342 2.713-6.11 6.21-6.11h12.324c2.62 0 4.95 1.523 5.824 3.817 2.234 6.483 8.537 8.678 8.537 8.678 2.43.858 4.083 3.053 4.083 5.726v12.126c0 3.338-2.724 6.012-6.217 6.012m2.234-51.345c-6.5 2.29-8.737 8.496-8.737 8.496-.874 2.29-3.197 4.01-5.82 4.01H43.57c-3.397 0-6.21-2.772-6.21-6.11 0-3.342 2.331-6.016 6.21-6.016l9.778.018-14.146-13.952c-2.423-2.388-2.423-6.205 0-8.583a6.224 6.224 0 0 1 8.733 0l14.076 13.814v-9.522c0-3.338 2.72-6.103 6.21-6.103 3.4 0 6.12 2.765 6.12 6.103v12.118c0 2.575-1.556 4.968-3.886 5.727M137.034 41.891c.552-.087 1.363-.124 2.175-.124 3.497 0 5.205 1.969 5.205 4.697 0 2.652-2.052 4.481-5.38 4.481-.848 0-1.619-.04-2-.084v-8.97zm0 13.017h.47l7.766 12.228h6.87l-6.7-9.916c-.685-1.004-1.496-2.191-2.308-3.243 4.013-.676 7.085-3.85 7.085-8.057 0-5.807-4.098-8.612-10.453-8.612-3.334 0-6.017.04-8.284.168v29.66h5.554V54.908zM163.126 62.97c-3.116 0-4.735-2.184-4.735-6.479 0-4.288 2.39-6.143 4.824-6.143 3.198 0 4.69 2.188 4.69 6.23 0 4.248-2.089 6.392-4.779 6.392m.467-17.162c-6.44 0-10.841 4.708-10.841 11.235 0 7.443 3.931 10.511 9.944 10.511 6.321 0 10.845-4.711 10.845-11.275 0-7.191-3.883-10.47-9.948-10.47M187.519 68.316l8.407-22.086h-5.85l-2.513 7.111c-.685 1.932-1.582 4.752-2.049 6.644h-.048a81.676 81.676 0 0 0-1.66-5.763l-2.86-7.992h-6.106l7.85 20.906-.68 1.852c-1.153 3.28-3.028 4.12-4.818 4.12-.9 0-1.878-.168-2.69-.42l-.64 4.627c.81.172 2.09.296 2.986.296 4.91 0 7.9-2.06 10.67-9.295M209.271 57.84v.552c0 2.52-1.785 5.04-4.435 5.04-1.582 0-2.56-1.095-2.56-2.44 0-1.804 1.493-3.151 6.995-3.151m-6.18 9.711c3.005 0 5.495-1.49 6.61-3.67v3.254h5.206c-.126-1.72-.17-3.704-.17-5.38v-8.627c0-4.671-1.96-7.363-8.53-7.363-2.867 0-5.895.592-8.029 1.435l.897 4.12c1.875-.803 4.48-1.431 6.402-1.431 2.816 0 3.794 1.135 3.794 3.663v.756c-7.425 0-12.245 2.312-12.245 7.279 0 3.404 2.223 5.964 6.065 5.964"/>
            </g>
        </g>
    </g>
</svg>
